<?xml version="1.0" encoding="utf-8"?>
<!-- Generator: Adobe Illustrator 20.1.0, SVG Export Plug-In . SVG Version: 6.00 Build 0)  -->
<svg version="1.1"
	 id="Layer_1" inkscape:version="0.91 r13725" sodipodi:docname="logo.svg" xmlns:cc="http://creativecommons.org/ns#" xmlns:dc="http://purl.org/dc/elements/1.1/" xmlns:inkscape="http://www.inkscape.org/namespaces/inkscape" xmlns:rdf="http://www.w3.org/1999/02/22-rdf-syntax-ns#" xmlns:sodipodi="http://sodipodi.sourceforge.net/DTD/sodipodi-0.dtd" xmlns:svg="http://www.w3.org/2000/svg"
	 xmlns="http://www.w3.org/2000/svg" xmlns:xlink="http://www.w3.org/1999/xlink" x="0px" y="0px" width="757.6px" height="325.6px"
	 viewBox="0 0 757.6 325.6" style="enable-background:new 0 0 757.6 325.6;" xml:space="preserve">
<style type="text/css">
	.st0{enable-background:new    ;}
	.st1{fill:#898A8D;}
	.st2{fill:#A0A1A3;}
	.st3{fill:#8D8E91;}
	.st4{fill:#6C6E70;}
	.st5{fill:#FF7308;}
	.st6{fill:#FFA64A;}
	.st7{fill:#A0A0A0;}
	.st8{fill:#FF8A22;}
	.st9{fill:#FF7C00;}
	.st10{fill:#FFAB30;}
	.st11{fill:#FF521E;}
	.st12{fill:#FF7729;}
	.st13{fill:#FB470E;}
	.st14{fill:#FF8A2C;}
	.st15{fill:#FF782A;}
	.st16{fill:#FB3C12;}
	.st17{fill:#FFA428;}
	.st18{fill:#FB7100;}
	.st19{fill:#808183;}
	.st20{fill:#FC7800;}
	.st21{fill:#FF591D;}
	.st22{fill:#FD4114;}
	.st23{fill:#FFAF32;}
	.st24{fill:#FF911B;}
	.st25{fill:#FF9922;}
	.st26{fill:#FF991A;}
	.st27{fill:#9C9EA0;}
	.st28{fill:#FF9F20;}
	.st29{fill:#B9B9BA;}
	.st30{fill:#FF9528;}
	.st31{fill:#FF991C;}
	.st32{fill:#FF7B0A;}
	.st33{fill:#FF7A23;}
	.st34{fill:#6E6F72;}
	.st35{fill:#FE4117;}
	.st36{fill:#FF992D;}
	.st37{fill:#FF8C28;}
	.st38{fill:#FF9311;}
	.st39{fill:#FF9A18;}
	.st40{fill:#FB3F11;}
	.st41{fill:#FF8213;}
	.st42{fill:#FF7207;}
	.st43{fill:#B9BABA;}
	.st44{fill:#FFAE5F;}
	.st45{fill:#FF9417;}
	.st46{fill:#FF9620;}
	.st47{fill:#FFA634;}
	.st48{fill:#FF471A;}
	.st49{fill:#FF511E;}
	.st50{fill:#FF9B26;}
	.st51{fill:#FF9625;}
	.st52{fill:#F67408;}
	.st53{fill:#FF7C08;}
	.st54{fill:#FF9213;}
	.st55{fill:#FFA422;}
	.st56{fill:#FF7A02;}
	.st57{fill:#FF8A2D;}
	.st58{fill:#FF631E;}
	.st59{fill:#FF8105;}
	.st60{fill:#FF8506;}
	.st61{fill:#FF8721;}
	.st62{fill:#FF8E23;}
	.st63{fill:#FF5518;}
	.st64{fill:#FF7021;}
	.st65{fill:#FF9230;}
	.st66{fill:#FF771F;}
	.st67{fill:#FF8D27;}
	.st68{fill:#FF8E2C;}
	.st69{fill:#FF4D1A;}
	.st70{fill:#FF4A19;}
	.st71{fill:#FF7728;}
	.st72{fill:#FF913A;}
	.st73{fill:#FF9A19;}
	.st74{fill:#FF9324;}
	.st75{fill:#FF792B;}
	.st76{fill:#FF5018;}
	.st77{fill:#FF4517;}
	.st78{fill:#FF5820;}
	.st79{fill:#FF8519;}
	.st80{fill:#FF9521;}
	.st81{fill:#FF7C24;}
	.st82{fill:#FF852A;}
	.st83{fill:#FF9218;}
	.st84{fill:#FF982E;}
	.st85{fill:#FF901C;}
	.st86{fill:#FF9419;}
	.st87{fill:#FF7B09;}
	.st88{fill:#FF8819;}
	.st89{fill:#FF951E;}
	.st90{fill:#FF7D07;}
	.st91{fill:#FF810A;}
	.st92{fill:#FF581E;}
	.st93{fill:#FF9114;}
	.st94{fill:#FF9A1A;}
	.st95{fill:#FF7B26;}
	.st96{fill:#FF8C30;}
	.st97{fill:#FF541A;}
	.st98{fill:#FD500E;}
	.st99{fill:#FF7D22;}
	.st100{fill:#FF9229;}
	.st101{fill:#FF9A21;}
	.st102{fill:#FF8B17;}
	.st103{fill:#FF9C28;}
	.st104{fill:#FF9E23;}
	.st105{fill:#FF9E1F;}
	.st106{fill:#FF870D;}
	.st107{fill:#FF762B;}
	.st108{fill:#FD4813;}
	.st109{fill:#FF5129;}
	.st110{fill:#FF7B28;}
	.st111{fill:#FF5318;}
	.st112{fill:#FFAA47;}
	.st113{fill:#FF9124;}
	.st114{fill:#FF9126;}
	.st115{fill:#FF7712;}
	.st116{fill:#FF8B20;}
	.st117{fill:#FF921B;}
	.st118{fill:#FF4A17;}
	.st119{fill:#FF542C;}
	.st120{fill:#FF922A;}
	.st121{fill:#FF7818;}
	.st122{fill:#FF5F0D;}
	.st123{fill:#FF6317;}
	.st124{fill:#FF8524;}
	.st125{fill:#FF8828;}
	.st126{fill:#FF7721;}
	.st127{fill:#FF9B39;}
	.st128{fill:#FF9C20;}
	.st129{fill:#FF981A;}
	.st130{fill:#FF9C26;}
	.st131{fill:#FFA02A;}
	.st132{fill:#FF581C;}
	.st133{fill:#F8380E;}
	.st134{fill:#FF971D;}
	.st135{fill:#FF9E21;}
	.st136{fill:#FE5210;}
	.st137{fill:#FF6319;}
	.st138{fill:#F73A0B;}
	.st139{fill:#FF5112;}
	.st140{fill:#FC4610;}
	.st141{fill:#FF961F;}
	.st142{fill:#FF8B19;}
	.st143{fill:#FF8F22;}
	.st144{fill:#FF630C;}
	.st145{fill:#FF9D31;}
	.st146{fill:#FE570E;}
	.st147{fill:#FF7A1B;}
	.st148{fill:#FF9524;}
	.st149{fill:#FF7708;}
	.st150{fill:#FF8914;}
	.st151{fill:#FA5D03;}
	.st152{fill:#FF9B24;}
	.st153{fill:#FF750C;}
	.st154{fill:#F9400D;}
	.st155{fill:#FF5D13;}
	.st156{fill:#FD4F0F;}
	.st157{fill:#FE4814;}
	.st158{fill:#FF5E13;}
	.st159{fill:#FF7924;}
	.st160{fill:#FF7A27;}
	.st161{fill:#F42E00;}
	.st162{fill:#FE4813;}
	.st163{fill:#FF9224;}
	.st164{fill:#FD5D08;}
	.st165{fill:#FF8818;}
	.st166{fill:#FF8F19;}
	.st167{fill:#FF760C;}
	.st168{fill:#FF8A15;}
	.st169{fill:#FF710C;}
	.st170{fill:#FF901E;}
	.st171{fill:#F95C02;}
	.st172{fill:#FF6412;}
	.st173{fill:#FF7216;}
	.st174{fill:#FB4E0C;}
	.st175{fill:#FF6A19;}
	.st176{fill:#FF9D30;}
	.st177{fill:#EF3B0A;}
	.st178{fill:#FB530A;}
	.st179{fill:#FF821A;}
	.st180{fill:#FF5C14;}
	.st181{fill:#F44719;}
	.st182{fill:#FF8127;}
	.st183{fill:#FF5012;}
	.st184{fill:#FF6716;}
	.st185{fill:#FF9724;}
	.st186{fill:#FF8C1E;}
	.st187{fill:#F64A03;}
	.st188{fill:#FFA730;}
	.st189{fill:#FA5606;}
	.st190{fill:#FF9E2E;}
	.st191{fill:#FF811F;}
	.st192{fill:#FC550A;}
	.st193{fill:#FF831D;}
	.st194{fill:#FF6816;}
	.st195{fill:#F74707;}
	.st196{fill:#FFFFFF;stroke:#FFFFFF;stroke-width:0.5;stroke-miterlimit:10;}
	.st197{fill:#96A91A;}
	.st198{fill:#B8CE2B;}
	.st199{fill:#A9C015;}
	.st200{fill:#C9D676;}
</style>
<sodipodi:namedview  bordercolor="#666666" borderopacity="1" gridtolerance="10" guidetolerance="10" id="namedview467" inkscape:current-layer="Layer_1" inkscape:cx="285.10388" inkscape:cy="162.8" inkscape:pageopacity="0" inkscape:pageshadow="2" inkscape:window-height="480" inkscape:window-maximized="0" inkscape:window-width="640" inkscape:window-x="373" inkscape:window-y="134" inkscape:zoom="0.37354806" objecttolerance="10" pagecolor="#ffffff" showgrid="false">
	</sodipodi:namedview>
<g>
	<path id="path5" d="M287.4,242.9h440v44.9h-440V242.9z"/>
	<g id="g7" class="st0">
		<path id="path9" d="M316.3,120.5h2.7c0.3,5.7,2.8,10.4,7.6,14c4.8,3.6,10.8,5.5,18,5.5c7,0,12.8-1.8,17.3-5.4s6.7-8.2,6.7-13.8
			c0-4.4-1.5-7.9-4.6-10.6s-8.1-4.9-15.1-6.6l-9.1-2.3c-7.4-1.8-12.8-4.3-16.2-7.3c-3.4-3-5.1-7-5.1-11.8c0-5.9,2.5-10.9,7.4-14.9
			s10.9-6,17.8-6c7.3,0,13.4,1.9,18.4,5.7c5,3.8,7.6,8.5,7.8,14.1h-2.7c-0.3-4.9-2.6-9-7.1-12.3c-4.4-3.3-9.9-4.9-16.4-4.9
			c-6.3,0-11.6,1.7-15.9,5.2c-4.4,3.5-6.5,7.8-6.5,13.1c0,4.2,1.5,7.5,4.6,10.1s8,4.7,14.8,6.4l9,2.2c7.5,1.9,13.1,4.4,16.5,7.5
			c3.5,3.1,5.2,7.2,5.2,12.2c0,6.4-2.5,11.6-7.5,15.7s-11.4,6.1-19.4,6.1s-14.6-2.1-19.9-6.2C319.4,132.3,316.6,127,316.3,120.5
			L316.3,120.5z M456.5,62.5v78.9h-2.7V68.8h-0.2l-31.9,72.6h-2.9l-31.9-72.6h-0.2v72.6H384V62.5h2.9l33.3,75.5h0.2l33.1-75.5H456.5
			L456.5,62.5z M527.7,141.4L517.4,114h-36.7l-10.4,27.4h-3l30.4-78.9h2.8l30.4,78.9H527.7z M498.9,66.2l-17.2,45.2h34.7l-17.2-45.2
			L498.9,66.2L498.9,66.2z M544.2,106.9v34.5h-2.7V62.5H566c7.9,0,14.1,2,18.6,5.9c4.5,4,6.8,9.4,6.8,16.3c0,5.8-1.7,10.6-5,14.4
			s-8,6.3-13.9,7.3l20.8,35h-3.1l-20.6-34.6c-1.3,0.1-2.5,0.1-3.6,0.1L544.2,106.9L544.2,106.9z M544.2,65v39.4h21.7
			c7,0,12.6-1.8,16.6-5.3s6-8.3,6-14.4c0-6.2-2-11-6-14.5s-9.6-5.2-16.7-5.2H544.2z M629.8,141.4h-2.7V65.1h-28.5v-2.6h59.6v2.6
			h-28.5L629.8,141.4L629.8,141.4z"/>
	</g>
	<g id="g11" class="st0">
		<path id="path13" d="M351.7,149.4c10.6,0,19.1,3.7,25.3,11c6.3,7.3,9.4,17.2,9.4,29.6s-3.1,22.3-9.4,29.6
			c-6.3,7.3-14.7,11-25.4,11s-19.1-3.7-25.4-11s-9.4-17.2-9.4-29.6s3.1-22.2,9.4-29.6C332.6,153,341,149.4,351.7,149.4z
			 M351.7,151.9c-9.8,0-17.6,3.4-23.4,10.3c-5.8,6.8-8.7,16.1-8.7,27.7s2.9,20.8,8.7,27.7c5.8,6.9,13.6,10.3,23.4,10.3
			c9.7,0,17.5-3.4,23.3-10.3s8.7-16.1,8.7-27.7s-2.9-20.8-8.7-27.7C369.2,155.4,361.5,151.9,351.7,151.9z M402.2,194.9v34.5h-2.7
			v-78.9H424c7.9,0,14.1,2,18.6,5.9c4.5,4,6.8,9.4,6.8,16.3c0,5.8-1.7,10.6-5,14.4c-3.4,3.8-8,6.3-13.9,7.3l20.8,35h-3.1l-20.6-34.6
			c-1.3,0.1-2.5,0.1-3.6,0.1L402.2,194.9L402.2,194.9z M402.2,153v39.4h21.7c7,0,12.6-1.8,16.6-5.3s6-8.3,6-14.4c0-6.2-2-11-6-14.5
			s-9.6-5.2-16.7-5.2H402.2z M518.5,229.4L508.2,202h-36.7l-10.4,27.4h-3l30.4-78.9h2.8l30.4,78.9H518.5z M489.7,154.2l-17.2,45.2
			h34.7L490,154.2H489.7z M535,229.4h-2.8v-78.9h3l52.4,73.7h0.2v-73.7h2.7v78.9H588l-52.8-74.3H535V229.4z M669,198.5
			c0,9.9-2.8,17.7-8.4,23.4c-5.6,5.7-13.3,8.5-23,8.5c-6.6,0-12.5-1.7-17.7-5.2c-5.2-3.4-9.2-8.3-12-14.5
			c-2.9-6.2-4.3-13.4-4.3-21.4c0-12,3.1-21.7,9.4-29c6.2-7.3,14.5-11,24.7-11c7.8,0,14.5,2.2,20.2,6.5s9.2,9.9,10.7,16.9h-2.7
			c-1.5-6.3-4.9-11.3-10-15.1c-5.1-3.8-11.2-5.7-18.2-5.7c-9.4,0-17,3.4-22.7,10.3s-8.6,15.9-8.6,27.2c0,11.4,2.9,20.7,8.7,27.8
			c5.8,7.1,13.3,10.7,22.6,10.7c8.9,0,15.9-2.6,21-7.8c5.1-5.2,7.7-12.4,7.7-21.4v-5.5h-29v-2.5h31.7v7.8L669,198.5z M727.8,226.9
			v2.6h-45.2v-78.9h45.2v2.6h-42.4v34.6h40.5v2.5h-40.5V227h42.4V226.9z"/>
	</g>
	<path id="path15" class="st1" d="M254.7,214.9l-5.1,10.4l10.4-22.8L254.7,214.9z"/>
	<path id="path17" class="st2" d="M218,259.9l-7.3,2.9l20.7-15.2L218,259.9z"/>
	<path id="path19" class="st3" d="M273.7,154l-8.8-27.6L273,141L273.7,154z"/>
	<path id="path21" class="st4" d="M121.5,260.6l-7.7-4.3l25.5,9.1L121.5,260.6z"/>
	<path id="path23" class="st5" d="M279.6,193.4l-7.6,11.1l5.3-24.8L279.6,193.4z"/>
	<path id="path25" class="st6" d="M71.4,135.8l-0.2-11.3l12.7-12.4L71.4,135.8z"/>
	<path id="path27" class="st7" d="M227.9,258.1l16.7-9.2l10.9-2.6L227.9,258.1z"/>
	<path id="path29" class="st8" d="M255.5,246.4l-10.9,2.6l16.4-20.3L255.5,246.4z"/>
	<path id="path31" class="st9" d="M231.9,82.5l13.4,3.3l6.4,14.9L231.9,82.5z"/>
	<path id="path33" class="st10" d="M217.2,76.5l28.1,9.3l-13.4-3.3L217.2,76.5z"/>
	<path id="path35" class="st11" d="M75.5,216l15.9,25.2L76.3,234L75.5,216z"/>
	<path id="path37" class="st12" d="M75.5,216l0.8,17.9l-4.1-32L75.5,216z"/>
	<path id="path39" class="st13" d="M208.4,280.9l-27.9-5.8l18,0.8L208.4,280.9z"/>
	<path id="path41" class="st14" d="M208.4,280.9l-9.9-5l24.4-11.1L208.4,280.9z"/>
	<path id="path43" class="st15" d="M66.1,187.2l6.1,14.7l-15.7-27.5L66.1,187.2z"/>
	<path id="path45" class="st12" d="M63.9,160.5l2.2,26.7l-9.6-12.8L63.9,160.5z"/>
	<path id="path47" class="st16" d="M180.5,275.1l-28.1,10.7l18.9-8.2L180.5,275.1z"/>
	<path id="path49" class="st17" d="M192.3,54.4l24.9,22.1l-9.9-6.9L192.3,54.4z"/>
	<path id="path51" class="st18" d="M290.5,166l-13.3-14.1l-4.1-13.6L290.5,166z"/>
	<path id="path53" class="st19" d="M277.2,151.9l-8.4-27l4.3,13.4L277.2,151.9z"/>
	<path id="path55" class="st20" d="M273.1,138.4l-4.3-13.4l2.2-20.1L273.1,138.4z"/>
	<path id="path57" class="st21" d="M152.4,285.9l-10.6-13.1l29.5,4.9L152.4,285.9z"/>
	<path id="path59" class="st22" d="M152.4,285.9l-26.2-19.3l15.6,6.2L152.4,285.9z"/>
	<path id="path61" class="st23" d="M131,70.5l-15.8,9.4l20.6-22L131,70.5z"/>
	<path id="path63" class="st24" d="M135.8,57.9L164,64l-8.8,1L135.8,57.9z"/>
	<path id="path65" class="st25" d="M131,70.5l4.8-12.6l19.4,7.1L131,70.5z"/>
	<path id="path67" class="st26" d="M181,63.9l11.3-9.5l15,15.2L181,63.9z"/>
	<path id="path69" class="st27" d="M164,64l17-0.1L155.2,65L164,64z"/>
	<path id="path71" class="st28" d="M164,64l28.3-9.6L181,63.9L164,64z"/>
	<path id="path73" class="st29" d="M107.7,85.6l7.5-5.7l15.8-9.4L107.7,85.6z"/>
	<path id="path75" class="st30" d="M107.7,85.6l-23.5,4l31-9.7L107.7,85.6z"/>
	<path id="path77" class="st31" d="M290.5,166l-13.7,9.9l0.4-24L290.5,166z"/>
	<path id="path79" class="st32" d="M277.2,190.4l-0.4-14.4l13.7-9.9L277.2,190.4z"/>
	<path id="path81" class="st33" d="M198.5,275.9l16.1-8.8l8.3-2.3L198.5,275.9z"/>
	<path id="path83" class="st12" d="M65.6,172.5l0.5,14.7l-2.2-26.7L65.6,172.5z"/>
	<path id="path85" class="st34" d="M126.2,266.6l-11.4-6l27,12.2L126.2,266.6z"/>
	<path id="path87" class="st35" d="M126.2,266.6L93.9,261l20.9-0.4L126.2,266.6z"/>
	<path id="path89" class="st36" d="M86.2,108.9l-2-19.3l23.5-4L86.2,108.9z"/>
	<path id="path91" class="st37" d="M86.2,108.9L76.3,122l7.9-32.4L86.2,108.9z"/>
	<path id="path93" class="st38" d="M245,93.2l26,11.6l-16.4,2.5L245,93.2z"/>
	<path id="path95" class="st39" d="M254.6,107.4l16.4-2.5l-2.2,20.1L254.6,107.4z"/>
	<path id="path97" class="st40" d="M141.8,272.7l17.7,1.8l11.8,3.1L141.8,272.7z"/>
	<path id="path99" class="st41" d="M280.6,219.4l-9.5-22.7l6.1-6.3L280.6,219.4z"/>
	<path id="path101" class="st42" d="M271.1,196.6l5.7-20.7l0.4,14.4L271.1,196.6z"/>
	<path id="path103" class="st43" d="M73,133.8l3.3-11.7l9.9-13.1L73,133.8z"/>
	<path id="path105" class="st44" d="M73,133.8l-17.6,11.4L76.3,122L73,133.8z"/>
	<path id="path107" class="st45" d="M181,63.9l26.3,5.7l-8.8,1.4L181,63.9z"/>
	<path id="path109" class="st23" d="M198.5,71l8.8-1.4l22.1-1L198.5,71z"/>
	<path id="path111" class="st46" d="M131,70.5l24.2-5.5l-7.3,5.7L131,70.5z"/>
	<path id="path113" class="st47" d="M86.2,108.9l21.5-23.3l-7,11.1L86.2,108.9z"/>
	<path id="path115" class="st48" d="M95.7,238.9l19.1,21.7L93.9,261L95.7,238.9z"/>
	<path id="path117" class="st49" d="M95.7,238.9l-1.8,22.1l-10.6-32.2L95.7,238.9z"/>
	<path id="path119" class="st50" d="M280.6,219.4l-20-1.7l10.5-21L280.6,219.4z"/>
	<path id="path121" class="st51" d="M255.9,235.9l4.7-18.2l20,1.7L255.9,235.9z"/>
	<path id="path123" class="st52" d="M277.2,151.9l-5.5,4.5l11.7-20.1L277.2,151.9z"/>
	<path id="path125" class="st53" d="M276.8,175.9l-5.1-19.5l5.5-4.5L276.8,175.9z"/>
	<path id="path127" class="st54" d="M262.9,128.4l5.9-3.4l14.6,11.4L262.9,128.4z"/>
	<path id="path129" class="st55" d="M262.9,128.4l20.5,8l-11.7,20.1L262.9,128.4z"/>
	<path id="path131" class="st56" d="M254.6,107.4l14.2,17.6l-5.9,3.4L254.6,107.4z"/>
	<path id="path133" class="st57" d="M73,133.8l-2.2,24l-15.4-12.6L73,133.8z"/>
	<path id="path135" class="st58" d="M70.8,157.8l-5.2,14.8l-10.2-27.4L70.8,157.8z"/>
	<path id="path137" class="st59" d="M245,93.2l9.6,14.1l-16.9-12.1L245,93.2z"/>
	<path id="path139" class="st60" d="M229.4,68.6L245,93.2l-7.3,2L229.4,68.6z"/>
	<path id="path141" class="st23" d="M147.9,70.8l7.3-5.7l16.7-8L147.9,70.8z"/>
	<path id="path143" class="st61" d="M245,263.6l0.7-27.6l10.2-0.1L245,263.6z"/>
	<path id="path145" class="st62" d="M245.7,235.9l14.9-18.3l-4.7,18.2L245.7,235.9z"/>
	<path id="path147" class="st63" d="M191.6,286.9l-32.1-12.4l19.7-4.2L191.6,286.9z"/>
	<path id="path149" class="st64" d="M191.6,286.9l-12.4-16.6l26.1-7.1L191.6,286.9z"/>
	<path id="path151" class="st65" d="M191.6,286.9l13.7-23.7l9.3,3.9L191.6,286.9z"/>
	<path id="path153" class="st66" d="M214.6,267.1l11.8-15.6l18.6,12L214.6,267.1z"/>
	<path id="path155" class="st67" d="M245,263.6l-18.6-12l19.3-15.6L245,263.6z"/>
	<path id="path157" class="st68" d="M205.3,263.2l21.1-11.7l-11.8,15.6L205.3,263.2z"/>
	<path id="path159" class="st69" d="M81.5,211.4l1.8,17.3l-24.8-25.4L81.5,211.4z"/>
	<path id="path161" class="st70" d="M95.7,238.9l-12.4-10.1l-1.8-17.3L95.7,238.9z"/>
	<path id="path163" class="st16" d="M73.4,183.4l8.1,28l-23-8.1L73.4,183.4z"/>
	<path id="path165" class="st71" d="M73.4,183.4l-7.8-10.9l5.2-14.8L73.4,183.4z"/>
	<path id="path167" class="st72" d="M73.4,183.4l-14.9,19.9l7.1-30.8L73.4,183.4z"/>
	<path id="path169" class="st73" d="M216.1,85.6l13.3-17l8.3,26.6L216.1,85.6z"/>
	<path id="path171" class="st54" d="M198.5,71l30.9-2.4l-13.3,17L198.5,71z"/>
	<path id="path173" class="st74" d="M120.6,89.4l-19.9,7.3L119.8,67L120.6,89.4z"/>
	<path id="path175" class="st75" d="M159.5,274.6l-33.2,1.2l24.2-10.1L159.5,274.6z"/>
	<path id="path177" class="st76" d="M159.5,274.6l-9-8.9l28.7,4.7L159.5,274.6z"/>
	<path id="path179" class="st77" d="M113.2,246.2l1.6,14.3l-19.1-21.7L113.2,246.2z"/>
	<path id="path181" class="st78" d="M113.2,246.2l13.1,29.5l-11.5-15.2L113.2,246.2z"/>
	<path id="path183" class="st79" d="M120.6,89.4L119.8,67L145,80.6L120.6,89.4z"/>
	<path id="path185" class="st80" d="M119.8,67l28.1,3.7l-2.9,9.9L119.8,67z"/>
	<path id="path187" class="st81" d="M73.8,116.9l7.4,27.2L73,133.8L73.8,116.9z"/>
	<path id="path189" class="st82" d="M81.2,144l-10.4,13.7l2.2-24L81.2,144z"/>
	<path id="path191" class="st31" d="M198.5,71l17.6,14.6l-23.5-4.7L198.5,71z"/>
	<path id="path193" class="st83" d="M171.9,57l26.6,14l-5.9,9.9L171.9,57z"/>
	<path id="path195" class="st47" d="M100,111.9l0.7-15.2l19.9-7.3L100,111.9z"/>
	<path id="path197" class="st84" d="M100,111.9l-26.2,4.9l26.9-20.1L100,111.9z"/>
	<path id="path199" class="st17" d="M147.9,70.8l24-13.7l-4,22.5L147.9,70.8z"/>
	<path id="path201" class="st32" d="M167.9,79.5l4-22.5l20.7,23.9L167.9,79.5z"/>
	<path id="path203" class="st85" d="M147.9,70.8l20,8.8L145,80.6L147.9,70.8z"/>
	<path id="path205" class="st86" d="M262.9,128.4l8.8,28.1l-14.2-10.9L262.9,128.4z"/>
	<path id="path207" class="st87" d="M257.5,145.5l14.2,10.9l6.4,20.2L257.5,145.5z"/>
	<path id="path209" class="st88" d="M260.6,217.6l-1.9-22.7l12.4,1.7L260.6,217.6z"/>
	<path id="path211" class="st89" d="M271.1,196.6l-12.4-1.7l19.4-18.3L271.1,196.6z"/>
	<path id="path213" class="st90" d="M237.7,95.2l16.9,12.1l2.1,2.1L237.7,95.2z"/>
	<path id="path215" class="st91" d="M256.7,109.4l6.2,18.9l-5.4,17.2L256.7,109.4z"/>
	<path id="path217" class="st22" d="M133.4,249.4l-7.1,26.3l-13.1-29.5L133.4,249.4z"/>
	<path id="path219" class="st92" d="M133.4,249.4l17.1,16.2l-24.2,10.1L133.4,249.4z"/>
	<path id="path221" class="st93" d="M216.1,85.6l21.6,9.6l-7.7,10.2L216.1,85.6z"/>
	<path id="path223" class="st94" d="M230,105.4l7.7-10.2l19,14.2L230,105.4z"/>
	<path id="path225" class="st95" d="M179.2,270.4l10.2-14.5l15.9,7.4L179.2,270.4z"/>
	<path id="path227" class="st96" d="M179.2,270.4l-9.8,3.3l20-17.8L179.2,270.4z"/>
	<path id="path229" class="st97" d="M88.5,194.6l-7,16.8l-8.1-28L88.5,194.6z"/>
	<path id="path231" class="st98" d="M95.9,134.6L81.2,144l-7.4-27.2L95.9,134.6z"/>
	<path id="path233" class="st99" d="M100,111.9l-4.1,22.7l-22.1-17.8L100,111.9z"/>
	<path id="path235" class="st100" d="M226.4,251.5l3-20.9l16.3,5.3L226.4,251.5z"/>
	<path id="path237" class="st101" d="M257.5,145.5l20.6,31.1l-28.4-11.9L257.5,145.5z"/>
	<path id="path239" class="st102" d="M249.7,164.8l28.4,11.9l-19.4,18.3L249.7,164.8z"/>
	<path id="path241" class="st103" d="M120.6,89.4l24.4-8.8l-6.5,17.7L120.6,89.4z"/>
	<path id="path243" class="st104" d="M257.5,145.5l-7.8,19.2l-10-32.1L257.5,145.5z"/>
	<path id="path245" class="st105" d="M256.7,109.4l0.8,36.1l-17.8-12.9L256.7,109.4z"/>
	<path id="path247" class="st106" d="M230,105.4l26.7,4l-17,23.2L230,105.4z"/>
	<path id="path249" class="st16" d="M89.5,228.1l23.7,18.1l-17.5-7.4L89.5,228.1z"/>
	<path id="path251" class="st107" d="M88.5,194.6l1,33.5l-8-16.7L88.5,194.6z"/>
	<path id="path253" class="st108" d="M159.8,250.9l9.6,22.8l-18.9-8L159.8,250.9z"/>
	<path id="path255" class="st109" d="M159.8,250.9l-9.3,14.8l-17.1-16.2L159.8,250.9z"/>
	<path id="path257" class="st110" d="M159.8,250.9l29.6,5l-20,17.8L159.8,250.9z"/>
	<path id="path259" class="st111" d="M72.6,166.5l15.9,28.1l-15.1-11.2L72.6,166.5z"/>
	<path id="path261" class="st112" d="M81.2,144l-8.6,22.5l-1.8-8.8L81.2,144z"/>
	<path id="path263" class="st71" d="M72.6,166.5l0.8,16.9l-2.6-25.7L72.6,166.5z"/>
	<path id="path265" class="st113" d="M110.9,95.2l9.7-5.8l17.9,8.9L110.9,95.2z"/>
	<path id="path267" class="st114" d="M245.7,235.9l-16.3-5.3l24.8-12L245.7,235.9z"/>
	<path id="path269" class="st115" d="M260.6,217.6l-6.4,1l4.5-23.7L260.6,217.6z"/>
	<path id="path271" class="st116" d="M245.7,235.9l8.5-17.3l6.4-1L245.7,235.9z"/>
	<path id="path273" class="st117" d="M167.9,79.5l24.7,1.4l-7.8,14L167.9,79.5z"/>
	<path id="path275" class="st118" d="M121.8,229.4l-8.6,16.9l-23.7-18.1L121.8,229.4z"/>
	<path id="path277" class="st119" d="M133.4,249.4l-20.2-3.2l8.6-16.9L133.4,249.4z"/>
	<path id="path279" class="st120" d="M117.3,121.6l-21.4,13l4.1-22.7L117.3,121.6z"/>
	<path id="path281" class="st121" d="M110.9,95.2l27.6,3.1l-21.2,23.3L110.9,95.2z"/>
	<path id="path283" class="st122" d="M110.9,95.2l6.4,26.4l-17.3-9.7L110.9,95.2z"/>
	<path id="path285" class="st123" d="M205.3,263.2l-15.9-7.4l25.8-2.4L205.3,263.2z"/>
	<path id="path287" class="st124" d="M226.4,251.5l-11.2,1.9l14.2-22.8L226.4,251.5z"/>
	<path id="path289" class="st125" d="M205.3,263.2l9.9-9.8l11.2-1.9L205.3,263.2z"/>
	<path id="path291" class="st126" d="M99.3,155.8L81.2,144l14.7-9.4L99.3,155.8z"/>
	<path id="path293" class="st127" d="M99.3,155.8l-26.7,10.8l8.6-22.5L99.3,155.8z"/>
	<path id="path295" class="st128" d="M184.8,94.9l7.8-14l20.6,10L184.8,94.9z"/>
	<path id="path297" class="st129" d="M192.6,80.9l23.5,4.7l-2.9,5.3L192.6,80.9z"/>
	<path id="path299" class="st90" d="M213.2,90.9l2.9-5.3l13.9,19.8L213.2,90.9z"/>
	<path id="path301" class="st130" d="M249.7,164.8l9,30.2l-21.8-10.1L249.7,164.8z"/>
	<path id="path303" class="st131" d="M236.9,184.9l21.8,10.1l-4.5,23.7L236.9,184.9z"/>
	<path id="path305" class="st132" d="M111,205.5l-21.5,22.6l-1-33.5L111,205.5z"/>
	<path id="path307" class="st133" d="M111,205.5l10.8,23.8l-32.3-1.2L111,205.5z"/>
	<path id="path309" class="st134" d="M230,105.4l9.7,27.2l-22.6-9.2L230,105.4z"/>
	<path id="path311" class="st135" d="M213.2,90.9l16.8,14.5l-12.9,18L213.2,90.9z"/>
	<path id="path313" class="st136" d="M181,236.9l34.2,16.6l-25.8,2.4L181,236.9z"/>
	<path id="path315" class="st137" d="M181,236.9l8.4,19l-29.6-5L181,236.9z"/>
	<path id="path317" class="st138" d="M111,205.5l-22.5-10.9l15.5-14L111,205.5z"/>
	<path id="path319" class="st139" d="M99.3,155.8l4.7,24.9l-31.4-14.1L99.3,155.8z"/>
	<path id="path321" class="st140" d="M104,180.6l-15.5,14l-15.9-28.1L104,180.6z"/>
	<path id="path323" class="st141" d="M160.8,85.8l7.1-6.2l16.9,15.4L160.8,85.8z"/>
	<path id="path325" class="st142" d="M145,80.6l22.9-1.1l-7.1,6.2L145,80.6z"/>
	<path id="path327" class="st10" d="M138.5,98.4l6.5-17.7l15.8,5.1L138.5,98.4z"/>
	<path id="path329" class="st143" d="M236.9,184.9l17.3,33.8L220.9,204L236.9,184.9z"/>
	<path id="path331" class="st144" d="M220.9,204l33.3,14.6l-24.8,12L220.9,204z"/>
	<path id="path333" class="st145" d="M201.6,222.4l27.8,8.3l-14.2,22.8L201.6,222.4z"/>
	<path id="path335" class="st146" d="M201.6,222.4l13.6,31.1L181,236.8L201.6,222.4z"/>
	<path id="path337" class="st147" d="M220.9,204l8.5,26.6l-27.8-8.3L220.9,204z"/>
	<path id="path339" class="st148" d="M138.5,98.4l22.3-12.6l-18.4,33.1L138.5,98.4z"/>
	<path id="path341" class="st8" d="M138.5,98.4l3.9,20.5l-25.1,2.8L138.5,98.4z"/>
	<path id="path343" class="st149" d="M184.8,94.9l28.4-4l-20.8,26.4L184.8,94.9z"/>
	<path id="path345" class="st150" d="M213.2,90.9l3.9,32.5l-24.7-6.1L213.2,90.9z"/>
	<path id="path347" class="st151" d="M160.8,85.8l5.7,29.4l-24.1,3.7L160.8,85.8z"/>
	<path id="path349" class="st152" d="M160.8,85.8l24,9.2l-18.3,20.2L160.8,85.8z"/>
	<path id="path351" class="st153" d="M184.8,94.9l7.6,22.4l-25.9-2.2L184.8,94.9z"/>
	<path id="path353" class="st154" d="M137.6,212.4l-15.8,16.9L111,205.5L137.6,212.4z"/>
	<path id="path355" class="st155" d="M201.6,222.4L181,236.9l-12.4-20.5L201.6,222.4z"/>
	<path id="path357" class="st156" d="M122.5,165.1L104,180.6l-4.7-24.9L122.5,165.1z"/>
	<path id="path359" class="st157" d="M145.2,240.4l14.6,10.4l-26.4-1.4L145.2,240.4z"/>
	<path id="path361" class="st158" d="M137.6,212.4l31,3.9l-23.4,24.1L137.6,212.4z"/>
	<path id="path363" class="st159" d="M168.6,216.4l12.4,20.5l-35.8,3.6L168.6,216.4z"/>
	<path id="path365" class="st160" d="M145.2,240.4l35.8-3.6l-21.2,14L145.2,240.4z"/>
	<path id="path367" class="st161" d="M137.6,212.4l7.6,28l-23.4-11.1L137.6,212.4z"/>
	<path id="path369" class="st162" d="M145.2,240.4l-11.8,9l-11.6-20.1L145.2,240.4z"/>
	<path id="path371" class="st163" d="M236.9,184.9l-16,19.2l-12-30.4L236.9,184.9z"/>
	<path id="path373" class="st164" d="M166.5,115.1l-23.3,26.2l-0.8-22.5L166.5,115.1z"/>
	<path id="path375" class="st165" d="M217.1,123.4l-18.4,20.5l-6.3-26.6L217.1,123.4z"/>
	<path id="path377" class="st166" d="M239.7,132.6l10,32.1l-16.5-14.9L239.7,132.6z"/>
	<path id="path379" class="st167" d="M217.1,123.4l16.1,26.4l-34.5-5.9L217.1,123.4z"/>
	<path id="path381" class="st168" d="M217.1,123.4l22.6,9.2l-6.5,17.2L217.1,123.4z"/>
	<path id="path383" class="st169" d="M233.2,149.9l3.7,35l-28-11.2L233.2,149.9z"/>
	<path id="path385" class="st170" d="M233.2,149.9l16.5,14.9l-12.8,20.1L233.2,149.9z"/>
	<path id="path387" class="st171" d="M198.7,143.9l34.5,5.9l-24.3,23.8L198.7,143.9z"/>
	<path id="path389" class="st172" d="M112.1,139.9l31.1,1.5l-20.7,23.8L112.1,139.9z"/>
	<path id="path391" class="st173" d="M142.4,118.9l0.8,22.5l-31.1-1.5L142.4,118.9z"/>
	<path id="path393" class="st174" d="M112.1,139.9l10.4,25.3l-23.2-9.4L112.1,139.9z"/>
	<path id="path395" class="st175" d="M112.1,139.9l-12.8,15.9l-3.4-21.1L112.1,139.9z"/>
	<path id="path397" class="st112" d="M117.3,121.6l-5.2,18.2l-16.2-5.2L117.3,121.6z"/>
	<path id="path399" class="st176" d="M117.3,121.6l25.1-2.8l-30.3,21L117.3,121.6z"/>
	<path id="path401" class="st177" d="M158.3,191.5l10.3,24.8l-31-3.9L158.3,191.5z"/>
	<path id="path403" class="st178" d="M143.2,141.4l6.2,25.1l-26.9-1.3L143.2,141.4z"/>
	<path id="path405" class="st109" d="M178.8,167l-20.5,24.5l-8.9-25.1L178.8,167z"/>
	<path id="path407" class="st179" d="M198.7,143.9l10.2,29.7l-30.1-6.6L198.7,143.9z"/>
	<path id="path409" class="st180" d="M124.4,192.4l33.9-0.8l-20.7,20.9L124.4,192.4z"/>
	<path id="path411" class="st181" d="M124.4,192.4l13.2,20.1l-26.6-6.9L124.4,192.4z"/>
	<path id="path413" class="st182" d="M122.5,165.1l1.9,27.2L104,180.6L122.5,165.1z"/>
	<path id="path415" class="st183" d="M124.4,192.4L111,205.6l-7-24.9L124.4,192.4z"/>
	<path id="path417" class="st66" d="M149.4,166.4l8.9,25.1l-33.9,0.8L149.4,166.4z"/>
	<path id="path419" class="st184" d="M122.5,165.1l26.9,1.3l-25,25.9L122.5,165.1z"/>
	<path id="path421" class="st116" d="M169.2,135l29.5,8.9L178.8,167L169.2,135z"/>
	<path id="path423" class="st185" d="M192.4,117.4l6.3,26.6l-29.5-8.9L192.4,117.4z"/>
	<path id="path425" class="st186" d="M166.5,115.1l25.9,2.2l-23.2,17.7L166.5,115.1z"/>
	<path id="path427" class="st187" d="M169.2,135l9.6,32l-29.4-0.6L169.2,135z"/>
	<path id="path429" class="st188" d="M166.5,115.1l2.7,19.9l-26,6.3L166.5,115.1z"/>
	<path id="path431" class="st189" d="M143.2,141.4l26-6.3l-19.8,31.4L143.2,141.4z"/>
	<path id="path433" class="st190" d="M208.9,173.6l12,30.4l-29.3-5.1L208.9,173.6z"/>
	<path id="path435" class="st191" d="M191.6,198.9l29.3,5.1l-19.3,18.3L191.6,198.9z"/>
	<path id="path437" class="st192" d="M178.8,167l12.8,31.9l-33.3-7.4L178.8,167z"/>
	<path id="path439" class="st193" d="M178.8,167l30.1,6.6l-17.3,25.3L178.8,167z"/>
	<path id="path441" class="st194" d="M191.6,198.9l10,23.4l-33-6L191.6,198.9z"/>
	<path id="path443" class="st195" d="M158.3,191.5l33.3,7.4l-23,17.4L158.3,191.5z"/>
	<g id="g445" class="st0">
		<path id="path447" class="st196" d="M328.1,256.9c-1.5,0-2.7,0.8-3.6,2.4s-1.3,3.8-1.3,6.6c0,1.8,0.2,3.4,0.6,4.8s1,2.4,1.8,3.1
			s1.7,1.1,2.7,1.1s1.9-0.2,2.7-0.6v1.2c-0.7,0.4-1.6,0.6-2.8,0.6c-1.3,0-2.4-0.4-3.3-1.2c-1-0.8-1.7-2-2.2-3.6s-0.8-3.4-0.8-5.5
			c0-3.2,0.6-5.7,1.7-7.5s2.7-2.7,4.6-2.7c1.2,0,2.3,0.3,3.2,0.8l-0.6,1.2C330,257.1,329.1,256.9,328.1,256.9L328.1,256.9z
			 M345.8,265.9c0,3.3-0.5,5.9-1.5,7.6c-1,1.8-2.4,2.7-4.3,2.7s-3.3-0.9-4.3-2.7s-1.5-4.3-1.5-7.6c0-3.4,0.5-6,1.4-7.7
			c1-1.7,2.4-2.5,4.3-2.5s3.3,0.9,4.3,2.7C345.3,260,345.8,262.6,345.8,265.9z M335.7,265.9c0,3,0.4,5.2,1.1,6.7s1.8,2.3,3.2,2.3
			c1.4,0,2.5-0.8,3.3-2.3c0.7-1.5,1.1-3.8,1.1-6.8s-0.4-5.2-1.1-6.7s-1.8-2.3-3.2-2.3c-1.5,0-2.6,0.8-3.3,2.3
			C336,260.7,335.7,262.9,335.7,265.9z M357.4,270.6c0,1.8-0.4,3.2-1.3,4.1c-0.9,1-2.1,1.5-3.8,1.5c-1.3,0-2.4-0.3-3.5-0.8v-1.5
			c0.5,0.3,1,0.5,1.6,0.7s1.2,0.3,1.9,0.3c2.5,0,3.7-1.4,3.7-4.3c0-1.5-0.4-2.6-1.1-3.3s-1.8-1.1-3.3-1.1h-1.4v-1.3h1.4
			c1.3,0,2.3-0.4,3-1.1c0.7-0.7,1.1-1.8,1.1-3.3c0-1.2-0.3-2.1-0.8-2.7s-1.3-0.9-2.2-0.9c-0.5,0-1,0.1-1.5,0.4s-0.8,0.5-1.1,0.9
			l-0.9-0.9c1-1.1,2.2-1.6,3.6-1.6s2.4,0.4,3.2,1.3c0.8,0.9,1.1,2,1.1,3.6c0,1.3-0.3,2.4-0.9,3.3s-1.4,1.5-2.5,1.7v0.1
			c1.2,0.2,2.1,0.7,2.8,1.5C357.1,268.1,357.4,269.2,357.4,270.6L357.4,270.6z M372.1,280.9h-1.3v-5h-9.6v5h-1.3v-6.3h1.2
			c1.1-3.3,1.8-6.3,2.3-9.2s0.7-6,0.7-9.5h6.2v18.7h1.7L372.1,280.9L372.1,280.9z M369,274.6v-17.4h-3.6c-0.2,6.4-1.2,12.2-2.9,17.4
			H369z M383.1,275.9l-1.8-7.2h-4.9l-1.7,7.2h-1.4l4.8-20h1.4l4.9,20H383.1z M381,267.4l-1.8-7.5c-0.2-0.8-0.3-1.6-0.4-2.4
			c-0.1,0.8-0.2,1.6-0.4,2.4l-1.7,7.5H381z M397,275.9h-1.3v-9.8h-7v9.8h-1.3v-20h1.3v8.9h7v-8.9h1.3V275.9z M402.1,255.9h1.3v14.9
			c0,0.3,0,1.2-0.1,2.8h0.1l7.5-17.7h1.7v20h-1.3v-14.3c0-1.1,0.1-2.3,0.2-3.6h-0.1l-7.6,17.9h-1.7V255.9L402.1,255.9z M424.9,275.9
			h-7.2v-20h7.2v1.3H419v7.6h5.6v1.3H419v8.5h5.9V275.9L424.9,275.9z M435.1,255.9h1.3v14.9c0,0.3,0,1.2-0.1,2.8h0.1l7.5-17.7h1.7
			v20h-1.3v-14.3c0-1.1,0.1-2.3,0.2-3.6h-0.1l-7.6,17.9h-1.7L435.1,255.9L435.1,255.9z M466.3,275.9H465v-18.7h-7v18.7h-1.3v-20h9.7
			v20H466.3z M479.8,261.6c0,2.1-0.5,3.6-1.4,4.5s-2.3,1.4-4.2,1.4h-1.4v8.3h-1.3v-20h2.7c2,0,3.4,0.5,4.3,1.4
			S479.8,259.8,479.8,261.6L479.8,261.6z M472.8,266.4h1.3c1.6,0,2.7-0.4,3.3-1.1s1-2,1-3.7c0-1.6-0.3-2.8-1-3.5s-1.7-1-3.2-1h-1.5
			v9.3H472.8z M494.5,265.9c0,3.3-0.5,5.9-1.5,7.6c-1,1.8-2.4,2.7-4.3,2.7s-3.3-0.9-4.3-2.7s-1.5-4.3-1.5-7.6c0-3.4,0.5-6,1.4-7.7
			c1-1.7,2.4-2.5,4.3-2.5s3.3,0.9,4.3,2.7C494,260,494.5,262.6,494.5,265.9z M484.3,265.9c0,3,0.4,5.2,1.1,6.7
			c0.7,1.5,1.8,2.3,3.2,2.3s2.5-0.8,3.3-2.3c0.7-1.5,1.1-3.8,1.1-6.8s-0.4-5.2-1.1-6.7c-0.7-1.5-1.8-2.3-3.2-2.3
			c-1.5,0-2.6,0.8-3.3,2.3C484.7,260.7,484.3,262.9,484.3,265.9z M508.9,280.9h-1.3v-5H498v5h-1.3v-6.3h1.2c1.1-3.3,1.8-6.3,2.3-9.2
			s0.7-6,0.7-9.5h6.2v18.7h1.7L508.9,280.9L508.9,280.9z M505.9,274.6v-17.4h-3.6c-0.2,6.4-1.2,12.2-2.9,17.4H505.9z M512.4,255.9
			h3.8c1.6,0,2.8,0.4,3.6,1.2s1.3,2,1.3,3.6c0,2.7-1,4.3-3,4.6v0.1c1.1,0.2,2,0.7,2.5,1.5s0.8,1.9,0.8,3.3c0,1.8-0.4,3.2-1.2,4.2
			s-1.9,1.5-3.3,1.5h-4.6v-20L512.4,255.9z M513.7,264.9h2.5c1.2,0,2.1-0.3,2.7-1s0.8-1.7,0.8-3.1c0-1.1-0.3-2-0.9-2.6
			s-1.5-0.9-2.6-0.9h-2.5V264.9z M513.7,266.1v8.6h3.1c2.2,0,3.3-1.5,3.3-4.5c0-1.3-0.3-2.4-1-3.1s-1.6-1.1-2.7-1.1L513.7,266.1
			L513.7,266.1z M525.5,255.9h1.3v14.9c0,0.3,0,1.2-0.1,2.8h0.1l7.5-17.7h1.7v20h-1.3v-14.3c0-1.1,0.1-2.3,0.2-3.6h-0.1l-7.6,17.9
			h-1.7L525.5,255.9L525.5,255.9z M545.9,255.9h1.3v9.7l5.4-9.7h1.4l-5.5,9.7l5.6,10.3h-1.5l-5.5-10.2v10.2h-1.3v-10.2l-5.5,10.2
			h-1.5l5.6-10.3l-5.5-9.7h1.5l5.4,9.7L545.9,255.9L545.9,255.9z M564.4,275.9h-7.2v-20h7.2v1.3h-5.9v7.6h5.6v1.3h-5.6v8.5h5.9
			V275.9L564.4,275.9z M578.3,275.9H577v-9.8h-7v9.8h-1.3v-20h1.3v8.9h7v-8.9h1.3V275.9z M583.3,255.9h1.3v14.9c0,0.3,0,1.2-0.1,2.8
			h0.1l7.5-17.7h1.7v20h-1.3v-14.3c0-1.1,0.1-2.3,0.2-3.6h-0.1L585,276h-1.7L583.3,255.9L583.3,255.9z M606.2,275.9H599v-20h7.2v1.3
			h-5.9v7.6h5.6v1.3h-5.6v8.5h5.9V275.9L606.2,275.9z M622,256.9c-1.5,0-2.7,0.8-3.6,2.4s-1.3,3.8-1.3,6.6c0,1.8,0.2,3.4,0.6,4.8
			s1,2.4,1.8,3.1s1.7,1.1,2.7,1.1s1.9-0.2,2.7-0.6v1.2c-0.7,0.4-1.6,0.6-2.8,0.6c-1.3,0-2.4-0.4-3.3-1.2c-1-0.8-1.7-2-2.2-3.6
			s-0.8-3.4-0.8-5.5c0-3.2,0.6-5.7,1.7-7.5s2.7-2.7,4.6-2.7c1.2,0,2.3,0.3,3.2,0.8l-0.6,1.2C623.9,257.1,623,256.9,622,256.9
			L622,256.9z M636.4,275.9l-1.8-7.2h-4.9l-1.7,7.2h-1.4l4.8-20h1.4l4.9,20H636.4z M634.3,267.4l-1.8-7.5c-0.2-0.8-0.3-1.6-0.4-2.4
			c-0.1,0.8-0.2,1.6-0.4,2.4l-1.7,7.5H634.3L634.3,267.4z M640.6,255.9h1.3v14.9c0,0.3,0,1.2-0.1,2.8h0.1l7.5-17.7h1.7v20h-1.3
			v-14.3c0-1.1,0.1-2.3,0.2-3.6h-0.1l-7.6,17.9h-1.7L640.6,255.9L640.6,255.9z M645.9,254.4c-1.1,0-2-0.3-2.5-0.9s-0.9-1.6-1-2.9
			h1.3c0.1,1,0.3,1.8,0.7,2.2s0.9,0.6,1.6,0.6c0.8,0,1.3-0.2,1.7-0.7s0.6-1.2,0.6-2.1h1.3C649.3,253,648.1,254.3,645.9,254.4
			L645.9,254.4z M659.6,275.9h-1.4v-18.7h-4v-1.3h9.3v1.3h-4v18.7H659.6z M677.5,265.9c0,3.3-0.5,5.9-1.5,7.6s-2.4,2.7-4.3,2.7
			s-3.3-0.9-4.3-2.7s-1.5-4.3-1.5-7.6c0-3.4,0.5-6,1.4-7.7s2.4-2.5,4.3-2.5s3.3,0.9,4.3,2.7S677.5,262.6,677.5,265.9z M667.4,265.9
			c0,3,0.4,5.2,1.1,6.7s1.8,2.3,3.2,2.3s2.5-0.8,3.3-2.3s1.1-3.8,1.1-6.8s-0.4-5.2-1.1-6.7s-1.8-2.3-3.2-2.3c-1.5,0-2.6,0.8-3.3,2.3
			S667.4,262.9,667.4,265.9z M681.9,255.9h3.8c1.6,0,2.8,0.4,3.6,1.2s1.3,2,1.3,3.6c0,2.7-1,4.3-3,4.6v0.1c1.1,0.2,2,0.7,2.5,1.5
			s0.8,1.9,0.8,3.3c0,1.8-0.4,3.2-1.2,4.2s-1.9,1.5-3.3,1.5h-4.6v-20L681.9,255.9z M683.3,264.9h2.5c1.2,0,2.1-0.3,2.7-1
			s0.8-1.7,0.8-3.1c0-1.1-0.3-2-0.9-2.6s-1.5-0.9-2.6-0.9h-2.5V264.9z M683.3,266.1v8.6h3.1c2.2,0,3.3-1.5,3.3-4.5
			c0-1.3-0.3-2.4-1-3.1s-1.6-1.1-2.7-1.1L683.3,266.1L683.3,266.1z"/>
	</g>
	<path id="path449" class="st197" d="M73.8,52.1L97,62l8.7,20.8L73.8,52.1z"/>
	<path id="path451" class="st198" d="M100.7,53.4l5,29.5L97,62.1l-8-17.6L100.7,53.4z"/>
	<path id="path453" class="st199" d="M56.8,44.4l17,7.7L97,62l-8-17.6H56.8z"/>
	<path id="path455" class="st200" d="M75.2,31.9L89,44.5H56.8L75.2,31.9z"/>
	<path id="path457" class="st197" d="M48.7,31.9h26.5L56.8,44.5L48.7,31.9z"/>
	<path id="path459" class="st199" d="M75.2,31.9l17.9,1.3L76.9,22.9l-28.2,9H75.2z"/>
	<path id="path461" class="st198" d="M101.5,33.1h-8.4L76.9,22.9L101.5,33.1z"/>
	<path id="path463" class="st197" d="M100.7,53.4l-7.6-20.2l-17.9-1.3L89,44.5L100.7,53.4z M110.6,81.4l-9.9-28l5,29.5L110.6,81.4z"
		/>
	<path id="path465" class="st199" d="M101.5,33.1l9.1,48.2l-9.9-28l-7.6-20.2H101.5z"/>
</g>
</svg>
