<?xml version="1.0" encoding="iso-8859-1"?>
<!-- Generator: Adobe Illustrator 16.0.0, SVG Export Plug-In . SVG Version: 6.00 Build 0)  -->
<!DOCTYPE svg PUBLIC "-//W3C//DTD SVG 1.1//EN" "http://www.w3.org/Graphics/SVG/1.1/DTD/svg11.dtd">
<svg version="1.1" id="Capa_1" xmlns="http://www.w3.org/2000/svg" xmlns:xlink="http://www.w3.org/1999/xlink" x="0px" y="0px"
	 width="488.112px" height="488.113px" viewBox="0 0 488.112 488.113" style="enable-background:new 0 0 488.112 488.113; " fill="white"
	 xml:space="preserve">
<g>
	<g>
		<path d="M473.072,374.558L269.379,202.051c8.438-18.11,13.284-38.229,13.284-59.52c0-78.05-63.287-141.326-141.331-141.326
			C63.287,1.205,0,64.48,0,142.531c0,78.049,63.287,141.326,141.332,141.326c25.748,0,49.825-7,70.624-19.039l58.958,49.935
			l-17.383,20.529c-15.173,17.917-12.942,44.739,4.972,59.914c7.979,6.767,17.746,10.071,27.45,10.071
			c12.059,0,24.047-5.104,32.463-15.032l17.384-20.53l17.445,14.779l-27.472,32.442c-15.173,17.913-12.94,44.736,4.972,59.909
			c7.991,6.766,17.746,10.072,27.45,10.072c12.061,0,24.058-5.112,32.463-15.039l27.473-32.438
			c7.99,6.768,17.746,10.072,27.45,10.072c12.059,0,24.056-5.104,32.464-15.038C493.217,416.552,490.985,389.731,473.072,374.558z
			 M107.612,155.535c-24.326,0-44.056-19.725-44.056-44.056c0-24.337,19.729-44.061,44.056-44.061
			c24.338,0,44.066,19.724,44.066,44.061C151.679,135.81,131.95,155.535,107.612,155.535z"/>
	</g>
</g>
<g>
</g>
<g>
</g>
<g>
</g>
<g>
</g>
<g>
</g>
<g>
</g>
<g>
</g>
<g>
</g>
<g>
</g>
<g>
</g>
<g>
</g>
<g>
</g>
<g>
</g>
<g>
</g>
<g>
</g>
</svg>
