<?xml version="1.0" encoding="iso-8859-1"?>
<!-- Generator: Adobe Illustrator 18.0.0, SVG Export Plug-In . SVG Version: 6.00 Build 0)  -->
<!DOCTYPE svg PUBLIC "-//W3C//DTD SVG 1.1//EN" "http://www.w3.org/Graphics/SVG/1.1/DTD/svg11.dtd">
<svg xmlns="http://www.w3.org/2000/svg" xmlns:xlink="http://www.w3.org/1999/xlink" version="1.1" id="Capa_1" x="0px" y="0px" viewBox="0 0 481.182 481.182" style="enable-background:new 0 0 481.182 481.182;" xml:space="preserve" width="512px" height="512px">
<g>
	<path d="M251.137,265.836c0-4.461-14.911-108.084-39.591-115.176l-35.054-10.624c-0.846-2.562-2.724-4.777-5.35-6.651   c2.889-3.212,5.327-6.462,7.183-9.15c4.4-6.38,8.06-13.25,10.596-19.878c1.248-2.796,2.313-5.603,3.176-8.357   c3.413-2.86,5.422-7.133,5.422-11.614V73.406c0-3.15-0.991-6.231-2.814-8.786V49.165C194.704,22.054,172.647,0,145.54,0h-15.938   c-27.109,0-49.166,22.054-49.166,49.165v15.457c-1.823,2.554-2.813,5.637-2.813,8.784v10.979c0,4.479,2.01,8.748,5.422,11.613   c0.861,2.75,1.926,5.56,3.176,8.361c2.536,6.628,6.197,13.497,10.596,19.871c1.854,2.689,4.295,5.941,7.184,9.154   c-2.627,1.874-4.505,4.09-5.352,6.651L63.594,150.66c-24.68,7.092-39.469,113.726-39.469,113.726h0.003   c-0.074,0.474-0.125,0.955-0.125,1.45c0,5.139,4.165,9.305,9.305,9.305h208.524C246.973,275.141,251.137,270.975,251.137,265.836z    M128.138,178.265c-0.133,1.288-1.042,2.365-2.291,2.713c-0.279,0.077-0.563,0.115-0.846,0.115c-0.972,0-1.91-0.452-2.516-1.255   l-8.854-11.744c-0.413-0.548-0.635-1.215-0.635-1.899l0.011-18.833c0.001-1.104,0.58-2.128,1.525-2.698   c0.947-0.569,2.122-0.603,3.1-0.086c2.577,1.363,5.151,2.278,7.65,2.723c1.504,0.267,2.6,1.574,2.6,3.102v7.857   c0.449,0.177,0.857,0.456,1.188,0.822c0.598,0.663,0.886,1.547,0.795,2.435L128.138,178.265z M161.497,168.094l-8.843,11.738   c-0.604,0.802-1.543,1.254-2.518,1.254c-0.28,0-0.564-0.037-0.843-0.115c-1.248-0.348-2.157-1.424-2.29-2.713l-1.726-16.742   c-0.094-0.888,0.196-1.771,0.794-2.435c0.33-0.366,0.737-0.645,1.185-0.822v-7.857c0-1.528,1.099-2.835,2.602-3.102   c2.497-0.444,5.069-1.358,7.648-2.721c0.977-0.517,2.152-0.482,3.1,0.087c0.946,0.57,1.525,1.595,1.525,2.699l0.001,18.832   C162.133,166.881,161.911,167.547,161.497,168.094z M146.034,130.628h-16.93c-3.74,0-10.963-5.004-18.669-16.182   c-6.085-8.817-10.312-18.577-11.307-26.107l-0.17-1.305l-3.06-1.987c-0.894-0.581-1.433-1.575-1.433-2.643v-5.188   c0-1.74,1.41-3.151,3.151-3.151h1.287v-5.62c0-1.194,0.675-2.285,1.744-2.819c4.338-2.166,12.947-5.8,21.861-5.8   c7.113,0,13.01,2.367,17.529,7.032c5.63,5.819,12.118,8.77,19.288,8.77c4.058,0,8.253-0.958,12.468-2.847   c0.975-0.436,2.104-0.35,3.001,0.231c0.42,0.271,0.763,0.635,1.008,1.054h1.719c1.739,0,3.151,1.411,3.151,3.151v5.188   c0,1.067-0.541,2.062-1.436,2.643l-3.058,1.987l-0.169,1.298c-0.997,7.535-5.224,17.297-11.309,26.117   C156.997,125.625,149.776,130.628,146.034,130.628z" fill="#FFFFFF"/>
	<path d="M417.588,356.701l-35.054-10.624c-0.846-2.561-2.724-4.777-5.35-6.651c2.889-3.212,5.327-6.462,7.183-9.15   c4.4-6.38,8.06-13.25,10.596-19.878c1.248-2.796,2.314-5.603,3.176-8.357c3.413-2.86,5.422-7.133,5.422-11.614v-10.978   c0-3.15-0.991-6.231-2.814-8.786v-15.455c0-27.111-22.057-49.165-49.164-49.165h-15.939c-27.109,0-49.166,22.054-49.166,49.165   v15.457c-1.823,2.554-2.814,5.637-2.814,8.784v10.978c0,4.479,2.01,8.748,5.422,11.613c0.861,2.75,1.926,5.56,3.176,8.361   c2.536,6.628,6.197,13.497,10.596,19.871c1.855,2.689,4.295,5.941,7.184,9.154c-2.627,1.874-4.505,4.09-5.352,6.651l-35.054,10.624   c-24.68,7.092-39.469,113.726-39.469,113.726h0.003c-0.074,0.474-0.125,0.955-0.125,1.45c0,5.139,4.165,9.305,9.305,9.305h208.524   c5.141,0,9.305-4.166,9.305-9.305C457.179,467.416,442.267,363.793,417.588,356.701z M334.18,384.306   c-0.133,1.288-1.042,2.365-2.291,2.713c-0.279,0.077-0.563,0.115-0.846,0.115c-0.972,0-1.91-0.452-2.516-1.255l-8.855-11.744   c-0.413-0.548-0.635-1.215-0.635-1.899l0.011-18.833c0.001-1.105,0.58-2.128,1.525-2.698c0.947-0.569,2.122-0.603,3.1-0.086   c2.577,1.363,5.151,2.278,7.65,2.723c1.504,0.267,2.6,1.574,2.6,3.103v7.857c0.449,0.177,0.857,0.456,1.188,0.822   c0.598,0.663,0.886,1.547,0.795,2.435L334.18,384.306z M367.539,374.135l-8.843,11.738c-0.604,0.802-1.543,1.254-2.517,1.254   c-0.28,0-0.564-0.037-0.843-0.115c-1.248-0.348-2.157-1.424-2.29-2.713l-1.726-16.742c-0.094-0.888,0.196-1.772,0.794-2.435   c0.33-0.366,0.737-0.646,1.185-0.822v-7.857c0-1.528,1.099-2.835,2.603-3.103c2.497-0.444,5.069-1.358,7.647-2.721   c0.977-0.517,2.152-0.482,3.1,0.087c0.946,0.57,1.525,1.595,1.525,2.699l0.001,18.832   C368.175,372.922,367.953,373.588,367.539,374.135z M352.076,336.669h-16.93c-3.74,0-10.963-5.004-18.669-16.182   c-6.085-8.817-10.312-18.577-11.307-26.107l-0.17-1.305l-3.059-1.987c-0.894-0.581-1.433-1.575-1.433-2.643v-5.188   c0-1.74,1.41-3.151,3.151-3.151h1.287v-5.62c0-1.194,0.675-2.285,1.744-2.819c4.338-2.166,12.947-5.8,21.861-5.8   c7.113,0,13.01,2.367,17.529,7.032c5.63,5.819,12.118,8.77,19.288,8.77c4.058,0,8.253-0.958,12.468-2.847   c0.975-0.436,2.104-0.35,3.001,0.23c0.42,0.271,0.763,0.635,1.008,1.054h1.719c1.739,0,3.151,1.411,3.151,3.151v5.188   c0,1.067-0.541,2.061-1.436,2.643l-3.058,1.987l-0.169,1.298c-0.997,7.535-5.224,17.297-11.309,26.117   C363.039,331.666,355.818,336.669,352.076,336.669z" fill="#FFFFFF"/>
	<path d="M223.012,68.369c2.912-0.357,5.814-0.224,8.561,0.395c8.141,1.836,15.106,7.878,20.703,17.96   c6.239,11.24,10.085,23.7,12.739,33.302l2.228,8.052l-18.613,9.387c-2.179,1.099-3.559,3.325-3.573,5.766   c-0.015,2.439,1.339,4.683,3.505,5.807l70.115,36.409c0.939,0.487,1.967,0.731,2.995,0.731c1.003,0,2.006-0.231,2.927-0.696   c1.865-0.94,3.164-2.72,3.492-4.783l12.408-78.021c0.384-2.409-0.615-4.831-2.586-6.271c-1.97-1.439-4.583-1.65-6.761-0.554   l-16.388,8.269l-5.2-6.043c-27.174-31.588-51.17-47.605-71.32-47.605c-0.263,0-0.523,0.003-0.77,0.009   c-6.995,0.148-13.189,2.136-18.933,6.075c-2.471,1.694-3.463,4.859-2.402,7.661C217.2,67.022,220.053,68.738,223.012,68.369z" fill="#FFFFFF"/>
	<path d="M205.58,417.984c-2.912,0.357-5.814,0.224-8.562-0.395c-8.141-1.836-15.106-7.878-20.703-17.96   c-6.239-11.24-10.085-23.7-12.739-33.302l-2.227-8.052l18.613-9.387c2.179-1.099,3.559-3.325,3.573-5.766   c0.015-2.439-1.339-4.683-3.505-5.807l-70.115-36.409c-0.938-0.487-1.967-0.732-2.995-0.732c-1.003,0-2.006,0.232-2.927,0.696   c-1.865,0.94-3.164,2.72-3.492,4.783l-12.408,78.021c-0.384,2.409,0.615,4.831,2.586,6.271c1.97,1.439,4.583,1.65,6.761,0.554   l16.388-8.268l5.2,6.043c27.174,31.588,51.17,47.605,71.32,47.605c0.263,0,0.523-0.003,0.771-0.009   c6.995-0.148,13.188-2.136,18.933-6.075c2.471-1.694,3.463-4.859,2.402-7.661C211.392,419.331,208.539,417.615,205.58,417.984z" fill="#FFFFFF"/>
</g>
<g>
</g>
<g>
</g>
<g>
</g>
<g>
</g>
<g>
</g>
<g>
</g>
<g>
</g>
<g>
</g>
<g>
</g>
<g>
</g>
<g>
</g>
<g>
</g>
<g>
</g>
<g>
</g>
<g>
</g>
</svg>
