<?xml version="1.0" encoding="iso-8859-1"?>
<!-- Generator: Adobe Illustrator 16.0.0, SVG Export Plug-In . SVG Version: 6.00 Build 0)  -->
<!DOCTYPE svg PUBLIC "-//W3C//DTD SVG 1.1//EN" "http://www.w3.org/Graphics/SVG/1.1/DTD/svg11.dtd">
<svg xmlns="http://www.w3.org/2000/svg" xmlns:xlink="http://www.w3.org/1999/xlink" version="1.1" id="Capa_1" x="0px" y="0px" width="512px" height="512px" viewBox="0 0 372.938 372.938" style="enable-background:new 0 0 372.938 372.938;" xml:space="preserve">
<g>
	<g>
		<path d="M19.125,148.277C8.559,148.277,0,156.836,0,167.402v86.062c0,10.566,8.559,19.125,19.125,19.125h334.688    c10.566,0,19.125-8.559,19.125-19.125v-86.062c0-10.566-8.559-19.125-19.125-19.125h-3.127    c-7.984-21.238-30.858-81.434-41.874-103.026c-13.531-26.526-38.25-31.872-51.265-30.849H121.922    c-27.693,0-44.542,18.532-50.126,29.491L27.703,148.277H19.125z M335.883,219.403c0,12.211-9.897,22.108-22.108,22.108    c-12.212,0-22.118-9.897-22.118-22.108c0-12.212,9.897-22.108,22.108-22.108C325.977,197.294,335.883,207.182,335.883,219.403z     M97.471,56.726c1.358-2.267,8.95-13.636,24.451-13.636h136.266l1.463-0.077c0.163,0.01,15.138-1.338,23.601,15.271    c8.874,17.404,26.995,64.26,36.758,89.993H58.838L97.471,56.726z M65.14,197.285c12.211,0,22.108,9.897,22.108,22.108    c0,12.212-9.897,22.108-22.108,22.108s-22.108-9.888-22.108-22.099C43.031,207.191,52.928,197.285,65.14,197.285z" fill="#6fcce0"/>
		<path d="M57.375,358.652H76.5c10.566,0,19.125-8.559,19.125-19.125v-57.375H38.25v57.375    C38.25,350.093,46.809,358.652,57.375,358.652z" fill="#6fcce0"/>
		<path d="M296.438,358.652h19.125c10.566,0,19.125-8.559,19.125-19.125v-57.375h-57.375v57.375    C277.312,350.093,285.871,358.652,296.438,358.652z" fill="#6fcce0"/>
	</g>
</g>
<g>
</g>
<g>
</g>
<g>
</g>
<g>
</g>
<g>
</g>
<g>
</g>
<g>
</g>
<g>
</g>
<g>
</g>
<g>
</g>
<g>
</g>
<g>
</g>
<g>
</g>
<g>
</g>
<g>
</g>
</svg>
