<?xml version="1.0" encoding="iso-8859-1"?>
<!-- Generator: Adobe Illustrator 18.1.1, SVG Export Plug-In . SVG Version: 6.00 Build 0)  -->
<svg xmlns="http://www.w3.org/2000/svg" xmlns:xlink="http://www.w3.org/1999/xlink" version="1.1" id="Capa_1" x="0px" y="0px" viewBox="0 0 290 290" style="enable-background:new 0 0 290 290;" xml:space="preserve" width="512px" height="512px">
<path color-rendering="auto" image-rendering="auto" shape-rendering="auto" color-interpolation="sRGB" d="M85,0  c-2.761,0-5,2.239-5,5v50.072c0,2.761,2.239,5,5,5h10c2.761,0,5-2.239,5-5V5c0-2.761-2.239-5-5-5H85z M195,0c-2.761,0-5,2.239-5,5  v50.072c0,2.761,2.239,5,5,5h10c2.761,0,5-2.239,5-5V5c0-2.761-2.239-5-5-5H195z M5,20c-2.761,0-5,2.239-5,5v260  c0,2.761,2.239,5,5,5h280c2.761,0,5-2.239,5-5V25c0-2.761-2.239-5-5-5h-60c-2.761,0-5,2.239-5,5v45h-40V25c0-2.761-2.239-5-5-5h-60  c-2.761,0-5,2.239-5,5v45H70V25c0-2.761-2.239-5-5-5L5,20L5,20z M10,30h50v45c0,2.761,2.239,5,5,5h50c2.761,0,5-2.239,5-5V30h50v45  c0,2.761,2.239,5,5,5h50c2.761,0,5-2.239,5-5V30h50v250H10V30L10,30z M25,90c-2.761,0-5,2.239-5,5v170c0,2.761,2.239,5,5,5h240  c2.761,0,5-2.239,5-5V95c0-2.761-2.239-5-5-5L25,90L25,90z M30,100h230v160H30V100z M145,110c-2.761,0-5,2.239-5,5v30  c0,2.761,2.239,5,5,5h30c2.761,0,5-2.239,5-5v-30c0-2.761-2.239-5-5-5H145z M195,110c-2.761,0-5,2.239-5,5v30c0,2.761,2.239,5,5,5  h30c2.761,0,5-2.239,5-5v-30c0-2.761-2.239-5-5-5H195z M150,120h20v20h-20V120z M200,120h20v20h-20V120z M45,160  c-2.761,0-5,2.239-5,5v30c0,2.761,2.239,5,5,5h30c2.761,0,5-2.239,5-5v-30c0-2.761-2.239-5-5-5H45z M95,160c-2.761,0-5,2.239-5,5v30  c0,2.761,2.239,5,5,5h30c2.761,0,5-2.239,5-5v-30c0-2.761-2.239-5-5-5H95z M145,160c-2.761,0-5,2.239-5,5v30c0,2.761,2.239,5,5,5h30  c2.761,0,5-2.239,5-5v-30c0-2.761-2.239-5-5-5H145z M195,160c-2.761,0-5,2.239-5,5v30c0,2.761,2.239,5,5,5h30c2.761,0,5-2.239,5-5  v-30c0-2.761-2.239-5-5-5H195z M50,170h20v20H50V170z M100,170h20v20h-20V170z M150,170h20v20h-20V170z M200,170h20v20h-20V170z   M45,210c-2.761,0-5,2.239-5,5v30c0,2.761,2.239,5,5,5h30c2.761,0,5-2.239,5-5v-30c0-2.761-2.239-5-5-5H45z M95,210  c-2.761,0-5,2.239-5,5v30c0,2.761,2.239,5,5,5h30c2.761,0,5-2.239,5-5v-30c0-2.761-2.239-5-5-5H95z M145,210c-2.761,0-5,2.239-5,5  v30c0,2.761,2.239,5,5,5h30c2.761,0,5-2.239,5-5v-30c0-2.761-2.239-5-5-5H145z M50,220h20v20H50V220z M100,220h20v20h-20V220z   M150,220h20v20h-20V220z" fill="#6fcce0"/>
<g>
</g>
<g>
</g>
<g>
</g>
<g>
</g>
<g>
</g>
<g>
</g>
<g>
</g>
<g>
</g>
<g>
</g>
<g>
</g>
<g>
</g>
<g>
</g>
<g>
</g>
<g>
</g>
<g>
</g>
</svg>
