<?xml version="1.0" encoding="iso-8859-1"?>
<!-- Generator: Adobe Illustrator 16.0.0, SVG Export Plug-In . SVG Version: 6.00 Build 0)  -->
<!DOCTYPE svg PUBLIC "-//W3C//DTD SVG 1.1//EN" "http://www.w3.org/Graphics/SVG/1.1/DTD/svg11.dtd">
<svg version="1.1" id="Capa_1" xmlns="http://www.w3.org/2000/svg" xmlns:xlink="http://www.w3.org/1999/xlink" x="0px" y="0px"
	 width="124px" height="124px" viewBox="0 0 124 124" style="enable-background:new 0 0 124 124;" xml:space="preserve">
<g>
	<path d="M62,0C27.8,0,0,27.8,0,62s27.8,62,62,62s62-27.8,62-62S96.2,0,62,0z M62,109c-25.9,0-47-21.1-47-47c0-25.9,21.1-47,47-47
		c25.9,0,47,21.1,47,47C109,87.9,87.9,109,62,109z"/>
	<path d="M72,82h-1V53c0-3.3-2.7-6-6-6h-1.5H59h-6.5c-3.3,0-6.5,2.7-6.5,6v6c0,3.3,3.2,6,6.5,6H53v29c0,3.3,2.7,6,6,6h2h4h7
		c3.3,0,6-2.7,6-6v-6C78,84.7,75.3,82,72,82z"/>
	<circle cx="62" cy="32.5" r="9"/>
</g>
<g>
</g>
<g>
</g>
<g>
</g>
<g>
</g>
<g>
</g>
<g>
</g>
<g>
</g>
<g>
</g>
<g>
</g>
<g>
</g>
<g>
</g>
<g>
</g>
<g>
</g>
<g>
</g>
<g>
</g>
</svg>
