<?xml version="1.0" encoding="iso-8859-1"?>
<!-- Generator: Adobe Illustrator 16.0.0, SVG Export Plug-In . SVG Version: 6.00 Build 0)  -->
<!DOCTYPE svg PUBLIC "-//W3C//DTD SVG 1.1//EN" "http://www.w3.org/Graphics/SVG/1.1/DTD/svg11.dtd">
<svg xmlns="http://www.w3.org/2000/svg" xmlns:xlink="http://www.w3.org/1999/xlink" version="1.1" id="Capa_1" x="0px" y="0px" width="512px" height="512px" viewBox="0 0 744.899 744.9" style="enable-background:new 0 0 744.899 744.9;" xml:space="preserve">
<g>
	<path d="M623.3,714.15L623.3,714.15l-100.9-0.2c-0.5,0-53.899-1.7-93.199-22.3l-95.101-0.101c-0.899,0-1.7,0-2.6,0   c-25.9,0-45.8-8.1-59.2-24c-11.4-13.5-17.4-32.6-17.4-55.1l-1-297.9c-1.1-20.7,3.6-40.4,13.4-55.4c10.5-16.1,26-25.9,43.7-27.7   c17-1.7,42.8-2.6,54.8-3l49.6-124.2c2.5-27.2,11.301-47.3,26.2-59.8c13.5-11.3,28.601-13.7,39-13.7c5.601,0,10.3,0.7,13,1.4   c21.4,5,37.101,16.7,46.8,34.7c9.7,18.1,12.9,42.1,9.5,71.2c-2.5,21.4-8,40-10.8,47.5c-6.7,17.3-13.8,37.5-17,48.9l151.5,0.1   c20.9,0,39.7,9.6,52.9,26.9c11.8,15.6,18.399,36,18.399,57.6v0.7l-0.1,0.7l-42,315.399C696.899,684.849,667.2,714.15,623.3,714.15z    M522.5,694.15l100.8,0.199c33.4,0,55.2-22.199,59.8-61v-0.1l41.9-314.8c-0.2-31.2-18.3-64.1-51.4-64.1l-162.2-0.1   c-3.5,0-6.699-1.7-8.699-4.6c-3.4-4.9-3.7-10.3,7.1-41.6c5.1-14.9,10.8-29.4,10.8-29.6c6.101-16.2,19.7-69.9,2.4-102.3   c-7-13-18.101-21.1-34-24.8l-0.4-0.1c-0.7-0.2-3.8-0.8-8-0.8c-18.7,0-41.8,9.9-45.6,56.8l-0.101,1.5l-55.6,139.1l-6.5,0.1   c-0.4,0-38.2,0.9-59.8,3.1c-24.8,2.5-41.3,28.8-39.4,62.6v0.5l1,298.2c0,17.801,4.4,32.4,12.7,42.4c9.8,11.7,25.4,17.4,46.3,16.9   h0.2l100.2,0.1l2.2,1.2C470.399,691.849,520.3,694.15,522.5,694.15z" fill="#6fcce0"/>
	<path d="M148.9,697.25H50.3c-27.7,0-50.3-22.6-50.3-50.3v-383.6c0-27.7,22.6-50.3,50.3-50.3h98.5c27.7,0,50.3,22.6,50.3,50.3v383.7   C199.1,674.75,176.6,697.25,148.9,697.25z M50.3,232.85c-16.8,0-30.5,13.7-30.5,30.5v383.7c0,16.8,13.7,30.5,30.5,30.5h98.5   c16.8,0,30.5-13.7,30.5-30.5v-383.7c0-8.1-3.2-15.8-8.9-21.6c-5.8-5.8-13.4-8.9-21.5-8.9H50.3z" fill="#6fcce0"/>
	<path d="M99.6,640.95c-25.4,0-46.1-20.7-46.1-46.101c0-25.399,20.7-46.1,46.1-46.1c25.4,0,46.1,20.7,46.1,46.1   C145.7,620.25,125,640.95,99.6,640.95z M99.6,568.549c-14.5,0-26.3,11.8-26.3,26.3s11.8,26.301,26.3,26.301   s26.3-11.801,26.3-26.301S114.1,568.549,99.6,568.549z" fill="#6fcce0"/>
</g>
<g>
</g>
<g>
</g>
<g>
</g>
<g>
</g>
<g>
</g>
<g>
</g>
<g>
</g>
<g>
</g>
<g>
</g>
<g>
</g>
<g>
</g>
<g>
</g>
<g>
</g>
<g>
</g>
<g>
</g>
</svg>
