<?xml version="1.0" encoding="iso-8859-1"?>
<!-- Generator: Adobe Illustrator 16.0.0, SVG Export Plug-In . SVG Version: 6.00 Build 0)  -->
<!DOCTYPE svg PUBLIC "-//W3C//DTD SVG 1.1//EN" "http://www.w3.org/Graphics/SVG/1.1/DTD/svg11.dtd">
<svg xmlns="http://www.w3.org/2000/svg" xmlns:xlink="http://www.w3.org/1999/xlink" version="1.1" id="Capa_1" x="0px" y="0px" width="512px" height="512px" viewBox="0 0 217.267 217.267" style="enable-background:new 0 0 217.267 217.267;" xml:space="preserve">
<g>
	<path d="M188.246,182.443c17.994-19.397,29.021-45.334,29.021-73.81C217.267,48.733,168.534,0,108.633,0   C76.947,0,48.398,13.643,28.522,35.351c-0.074,0.067-0.166,0.094-0.228,0.164c-0.067,0.07-0.082,0.158-0.14,0.231   C10.667,55.034,0,80.613,0,108.633c0,59.898,48.73,108.633,108.633,108.633c31.241,0,59.426-13.274,79.261-34.458   c0.072-0.064,0.161-0.092,0.223-0.16C188.178,182.586,188.194,182.504,188.246,182.443z M108.633,7.009   c56.034,0,101.625,45.586,101.625,101.625c0,25.475-9.445,48.772-24.989,66.626l-37.832-34.827V45.113   c0-1.934-1.566-3.504-3.504-3.504h-7.628V30.658c0-1.934-1.567-3.504-3.504-3.504c-1.94,0-3.505,1.571-3.505,3.504v10.951H73.339   c-1.939,0-3.504,1.571-3.504,3.504v23.876L35.902,37.752C54.373,18.807,80.144,7.009,108.633,7.009z M76.843,84.974l63.589,58.538   v25.132H76.843V84.974z M76.843,75.443V48.617h63.589v85.361L76.843,75.443z M108.633,210.257   c-56.034,0-101.624-45.59-101.624-101.624c0-25.031,9.115-47.96,24.172-65.688l38.648,35.579v93.625   c0,1.934,1.567,3.504,3.504,3.504h70.595c1.941,0,3.505-1.57,3.505-3.504v-22.187l33.078,30.447   C162.101,198.834,136.678,210.257,108.633,210.257z" fill="#FFFFFF"/>
</g>
<g>
</g>
<g>
</g>
<g>
</g>
<g>
</g>
<g>
</g>
<g>
</g>
<g>
</g>
<g>
</g>
<g>
</g>
<g>
</g>
<g>
</g>
<g>
</g>
<g>
</g>
<g>
</g>
<g>
</g>
</svg>
