<?xml version="1.0" encoding="iso-8859-1"?>
<!-- Generator: Adobe Illustrator 19.0.0, SVG Export Plug-In . SVG Version: 6.00 Build 0)  -->
<svg xmlns="http://www.w3.org/2000/svg" xmlns:xlink="http://www.w3.org/1999/xlink" version="1.1" id="Capa_1" x="0px" y="0px" viewBox="0 0 512 512" style="enable-background:new 0 0 512 512;" xml:space="preserve" width="512px" height="512px">
<g>
	<g>
		<path d="M472.384,64.448l-213.333-64c-2.005-0.597-4.117-0.597-6.123,0l-213.333,64C35.093,65.792,32,69.952,32,74.667v234.667    c0,94.336,143.829,178.24,220.843,202.197c1.003,0.32,2.091,0.469,3.157,0.469s2.155-0.149,3.157-0.469    C336.171,487.552,480,403.669,480,309.333V74.667C480,69.952,476.907,65.813,472.384,64.448z M458.667,309.333    c0,74.901-118.677,153.664-202.667,180.821c-83.989-27.157-202.667-105.92-202.667-180.821V82.603L256,21.803l202.667,60.8    V309.333z" fill="#6fcce0"/>
	</g>
</g>
<g>
	<g>
		<path d="M256,128c-64.683,0-117.333,52.629-117.333,117.333S191.317,362.667,256,362.667s117.333-52.629,117.333-117.333    S320.683,128,256,128z M256,341.333c-52.928,0-96-43.072-96-96c0-52.928,43.072-96,96-96s96,43.072,96,96    C352,298.261,308.928,341.333,256,341.333z" fill="#6fcce0"/>
	</g>
</g>
<g>
	<g>
		<path d="M257.472,234.752c-0.021,0-2.155-0.277-2.219-0.277C224.363,230.699,224,224.064,224,224    c0-2.667,11.349-10.667,32.043-10.667c19.947,0,31.637,7.552,32.021,10.645c0.768,5.845,6.165,9.813,11.947,9.237    c5.845-0.747,9.984-6.08,9.237-11.925C307.093,204.331,284.715,192,256.043,192c-30.443,0-53.376,13.76-53.376,32    c0,25.557,36.331,29.995,51.947,31.872l2.261,0.299c30.784,3.797,31.147,10.432,31.147,10.496    c0,2.112-10.304,10.667-32.043,10.667c-19.947,0-31.637-7.573-32.043-10.667c-0.768-5.845-6.251-9.877-11.947-9.237    c-5.845,0.747-9.984,6.08-9.237,11.925c2.155,16.981,24.533,29.312,53.205,29.312c30.443,0,53.376-13.739,53.376-32    C309.333,241.152,273.088,236.693,257.472,234.752z" fill="#6fcce0"/>
	</g>
</g>
<g>
	<g>
		<path d="M256,170.667c-5.888,0-10.667,4.779-10.667,10.667v128c0,5.888,4.779,10.667,10.667,10.667s10.667-4.779,10.667-10.667    v-128C266.667,175.445,261.888,170.667,256,170.667z" fill="#6fcce0"/>
	</g>
</g>
<g>
</g>
<g>
</g>
<g>
</g>
<g>
</g>
<g>
</g>
<g>
</g>
<g>
</g>
<g>
</g>
<g>
</g>
<g>
</g>
<g>
</g>
<g>
</g>
<g>
</g>
<g>
</g>
<g>
</g>
</svg>
