<?xml version="1.0" encoding="iso-8859-1"?>
<!-- Generator: Adobe Illustrator 16.0.0, SVG Export Plug-In . SVG Version: 6.00 Build 0)  -->
<!DOCTYPE svg PUBLIC "-//W3C//DTD SVG 1.1//EN" "http://www.w3.org/Graphics/SVG/1.1/DTD/svg11.dtd">
<svg version="1.1" id="Capa_1" xmlns="http://www.w3.org/2000/svg" xmlns:xlink="http://www.w3.org/1999/xlink" x="0px" y="0px"
	 width="972.5px" height="972.5px" viewBox="0 0 972.5 972.5" style="enable-background:new 0 0 972.5 972.5;" xml:space="preserve"
	>
<g>
	<path d="M960.301,111.4c-8.201-8.7-19.9-14.2-32.801-14.2h-22c-24.9,0-45,20.1-45,45v3v682.199v2.9c0,24.9,20.1,45,45,45h22
		c12.9,0,24.6-5.5,32.801-14.199c1.699-1.9,3.299-3.801,4.699-6c4.699-7.1,7.5-15.6,7.5-24.801V142.2c0-9.2-2.801-17.7-7.5-24.8
		C963.6,115.3,962,113.3,960.301,111.4z"/>
	<path d="M67,358.8H45c-24.9,0-45,20.1-45,45v165.099c0,24.9,20.1,45,45,45h22c22.9,0,41.8-17.199,44.6-39.299l85,28.699
		c-0.7,6.4-1,13-1,19.6c0,102.4,83.3,185.801,185.8,185.801c67.2,0,126.1-35.801,158.7-89.4L800.4,807.2V165.5l-688.8,233
		C109,376.1,90,358.8,67,358.8z M381.4,728.601c-55.9,0-101.8-43.6-105.5-98.6l185,62.5C441.5,714.601,413,728.601,381.4,728.601z"
		/>
</g>
<g>
</g>
<g>
</g>
<g>
</g>
<g>
</g>
<g>
</g>
<g>
</g>
<g>
</g>
<g>
</g>
<g>
</g>
<g>
</g>
<g>
</g>
<g>
</g>
<g>
</g>
<g>
</g>
<g>
</g>
</svg>
