<?xml version="1.0" encoding="iso-8859-1"?>
<!-- Generator: Adobe Illustrator 19.0.0, SVG Export Plug-In . SVG Version: 6.00 Build 0)  -->
<svg xmlns="http://www.w3.org/2000/svg" xmlns:xlink="http://www.w3.org/1999/xlink" version="1.1" id="Capa_1" x="0px" y="0px" viewBox="0 0 512 512" style="enable-background:new 0 0 512 512;" xml:space="preserve" width="512px" height="512px">
<g>
	<g>
		<path d="M381.824,151.488l1.963-40.171l7.979-7.979c12.032-12.8,21.995-34.709,1.152-66.496    C376.939,12.416,349.76,0.021,312.128,0.021c-14.827,0-49.024,0-80.875,21.376C140.352,23.296,128,65.515,128,106.688    c0,9.579,2.325,31.147,3.861,44.16c-5.483,1.728-10.475,4.928-14.336,9.323c-6.059,6.869-8.896,16.043-7.765,25.152l5.333,42.667    c1.728,13.931,12.309,24.853,25.643,27.456c4.437,29.312,18.624,58.091,39.232,79.403l-7.424,29.717l-81.728,20.437    C37.333,398.357,0,446.208,0,501.312c0,5.888,4.779,10.667,10.667,10.667h330.667c5.888,0,10.667-4.779,10.667-10.667    c0-5.888-4.779-10.667-10.667-10.667H21.909c4.395-40.704,33.643-74.816,74.091-84.949l87.936-21.973    c3.819-0.96,6.805-3.947,7.765-7.765l10.453-41.835c0.939-3.755-0.235-7.723-3.072-10.368    c-21.547-20.203-35.819-49.835-38.165-79.232c-0.427-5.547-5.056-9.813-10.624-9.813h-3.456c-5.376,0-9.92-4.011-10.581-9.344    l-5.333-42.667c-0.384-3.093,0.533-6.08,2.603-8.405c2.048-2.325,4.864-3.605,7.979-3.605h2.197c3.072,0,5.995-1.301,8-3.605    c2.027-2.304,2.965-5.355,2.581-8.384c-1.365-10.923-4.949-41.579-4.949-52.011c0-33.28,6.549-63.211,85.44-64    c2.176-0.021,4.309-0.704,6.123-1.984c23.829-17.045,49.408-19.349,71.253-19.349c29.952,0,51.136,9.152,62.955,27.179    c14.165,21.632,8.043,32.853,1.365,39.957l-10.667,10.667c-1.877,1.877-2.987,4.373-3.115,7.019l-2.603,53.376    c-0.149,2.901,0.896,5.717,2.88,7.829s4.736,3.328,7.637,3.349c3.093,0.043,5.909,1.344,7.957,3.669    c2.005,2.304,2.901,5.248,2.517,8.277l-5.333,42.667c-0.661,5.333-5.205,9.344-11.627,9.344c-5.184,0-9.621,3.733-10.517,8.853    c-2.112,12.203-10.837,28.032-10.923,28.181c-2.88,5.163-1.024,11.648,4.117,14.507c5.12,2.837,11.605,1.045,14.507-4.117    c0.341-0.661,7.488-13.547,11.435-27.008c12.629-3.093,22.507-13.717,24.171-27.115l5.333-42.667    c1.131-9.003-1.643-18.091-7.616-24.939C391.125,156.373,386.709,153.344,381.824,151.488z" fill="#6fcce0"/>
	</g>
</g>
<g>
	<g>
		<path d="M503.915,298.56l-85.333-21.333c-1.707-0.448-3.456-0.448-5.163,0l-85.333,21.333c-4.757,1.195-8.085,5.461-8.085,10.347    v128c0,33.003,70.336,64.875,91.904,73.835c1.301,0.555,2.709,0.832,4.096,0.832c1.387,0,2.795-0.256,4.096-0.832    c21.568-8.96,91.904-40.832,91.904-73.835v-128C512,304.021,508.672,299.755,503.915,298.56z M490.667,436.907    c0,12.096-38.549,36.736-74.667,52.416c-36.139-15.68-74.667-40.299-74.667-52.416V317.248L416,298.581l74.667,18.667V436.907z" fill="#6fcce0"/>
	</g>
</g>
<g>
	<g>
		<path d="M422.571,323.157c-2.581-2.027-5.995-2.795-9.152-1.941l-42.667,10.667c-4.757,1.195-8.085,5.461-8.085,10.347v52.011    c0,5.888,4.779,10.667,10.667,10.667H416c5.888,0,10.667-4.757,10.667-10.667v-62.677    C426.667,328.277,425.152,325.184,422.571,323.157z M405.333,383.573H384v-33.024l21.333-5.333V383.573z" fill="#6fcce0"/>
	</g>
</g>
<g>
	<g>
		<path d="M458.667,383.573H416c-5.888,0-10.667,4.779-10.667,10.667v59.819c0,3.669,1.899,7.104,5.013,9.045    c1.728,1.088,3.691,1.621,5.653,1.621c1.6,0,3.2-0.363,4.693-1.088c19.456-9.515,36.736-20.117,45.12-27.648    c2.24-2.048,3.52-4.907,3.52-7.936V394.24C469.333,388.352,464.555,383.573,458.667,383.573z M448,423.019    c-5.099,3.861-12.672,8.619-21.333,13.44v-31.552H448V423.019z" fill="#6fcce0"/>
	</g>
</g>
<g>
</g>
<g>
</g>
<g>
</g>
<g>
</g>
<g>
</g>
<g>
</g>
<g>
</g>
<g>
</g>
<g>
</g>
<g>
</g>
<g>
</g>
<g>
</g>
<g>
</g>
<g>
</g>
<g>
</g>
</svg>
